<svg width="25" height="24" viewBox="0 0 25 24" fill="none" xmlns="http://www.w3.org/2000/svg">
<g clip-path="url(#clip0_1919_427)">
<path d="M12.1921 24C10.5671 24 9.01245 23.6836 7.52808 23.0508C6.0437 22.418 4.76636 21.5664 3.69604 20.4961C2.62573 19.4258 1.77417 18.1484 1.14136 16.6641C0.508545 15.1797 0.192139 13.625 0.192139 12C0.192139 10.375 0.508545 8.82031 1.14136 7.33594C1.77417 5.85156 2.62573 4.57422 3.69604 3.50391C4.76636 2.43359 6.0437 1.58203 7.52808 0.949219C9.01245 0.316406 10.5671 0 12.1921 0C13.8171 0 15.3718 0.316406 16.8562 0.949219C18.3406 1.58203 19.6179 2.43359 20.6882 3.50391C21.7585 4.57422 22.6101 5.85156 23.2429 7.33594C23.8757 8.82031 24.1921 10.375 24.1921 12C24.1921 13.625 23.8757 15.1797 23.2429 16.6641C22.6101 18.1484 21.7585 19.4258 20.6882 20.4961C19.6179 21.5664 18.3406 22.418 16.8562 23.0508C15.3718 23.6836 13.8171 24 12.1921 24ZM18.1921 7.5C18.1921 7.09375 18.0476 6.74219 17.7585 6.44531C17.4695 6.14844 17.114 6 16.6921 6H7.69214C7.28589 6 6.93433 6.14844 6.63745 6.44531C6.34058 6.74219 6.19214 7.09375 6.19214 7.5V9H8.86401C9.77026 8 10.8796 7.5 12.1921 7.5C13.5046 7.5 14.614 8 15.5203 9H18.1921V7.5ZM9.19214 12C9.19214 12.8281 9.48511 13.5352 10.071 14.1211C10.657 14.707 11.364 15 12.1921 15C13.0203 15 13.7273 14.707 14.3132 14.1211C14.8992 13.5352 15.1921 12.8281 15.1921 12C15.1921 11.1719 14.8992 10.4648 14.3132 9.87891C13.7273 9.29297 13.0203 9 12.1921 9C11.364 9 10.657 9.29297 10.071 9.87891C9.48511 10.4648 9.19214 11.1719 9.19214 12ZM18.1921 10.5H16.4109C16.5984 11.0156 16.6921 11.5156 16.6921 12C16.6921 13.25 16.2546 14.3125 15.3796 15.1875C14.5046 16.0625 13.4421 16.5 12.1921 16.5C10.9421 16.5 9.87964 16.0625 9.00464 15.1875C8.12964 14.3125 7.69214 13.25 7.69214 12C7.69214 11.5156 7.78589 11.0156 7.97339 10.5H6.19214V16.5C6.19214 16.9219 6.33667 17.2773 6.62573 17.5664C6.91479 17.8555 7.27026 18 7.69214 18H16.6921C17.114 18 17.4695 17.8555 17.7585 17.5664C18.0476 17.2773 18.1921 16.9219 18.1921 16.5V10.5Z" fill="#FEFAFA"/>
</g>
<defs>
<clipPath id="clip0_1919_427">
<rect width="24" height="24" fill="white" transform="translate(0.192139)"/>
</clipPath>
</defs>
</svg>
