<svg width="70" height="70" viewBox="0 0 70 70" fill="none" xmlns="http://www.w3.org/2000/svg">
<path d="M11.9727 15.5859H10.5078V9.10156H8.80859C8.11849 9.10156 7.51953 9.16016 7.01172 9.27734C6.50391 9.39453 6.08073 9.59635 5.74219 9.88281C5.41667 10.1562 5.17578 10.5339 5.01953 11.0156C4.86328 11.4974 4.78516 12.1029 4.78516 12.832V31.1133C4.78516 31.543 4.85677 31.9401 5 32.3047C5.14323 32.6562 5.33854 32.9688 5.58594 33.2422C5.83333 33.5026 6.1263 33.7109 6.46484 33.8672C6.81641 34.0104 7.20052 34.082 7.61719 34.082C8.0599 34.082 8.45703 34.0039 8.80859 33.8477C9.16016 33.6914 9.45964 33.4831 9.70703 33.2227C9.96745 32.9492 10.1628 32.6367 10.293 32.2852C10.4362 31.9206 10.5078 31.5299 10.5078 31.1133V22.168H8.02734V20.8594H11.9727V31.1328C11.9727 31.7578 11.8555 32.3307 11.6211 32.8516C11.3997 33.3724 11.0938 33.8216 10.7031 34.1992C10.3125 34.5768 9.85026 34.8698 9.31641 35.0781C8.79557 35.2865 8.23568 35.3906 7.63672 35.3906C7.01172 35.3906 6.43229 35.2799 5.89844 35.0586C5.3776 34.8372 4.92188 34.5378 4.53125 34.1602C4.15365 33.7826 3.85417 33.3333 3.63281 32.8125C3.42448 32.2917 3.32031 31.7318 3.32031 31.1328V13.4766C3.32031 13.0469 3.32682 12.6042 3.33984 12.1484C3.36589 11.6927 3.42448 11.2565 3.51562 10.8398C3.60677 10.4232 3.75651 10.0326 3.96484 9.66797C4.17318 9.29036 4.45964 8.96484 4.82422 8.69141C5.20182 8.40495 5.67708 8.18359 6.25 8.02734C6.83594 7.87109 7.55208 7.79297 8.39844 7.79297H11.9727V15.5859ZM25.3086 15.1172V31.4453C25.3086 32.0182 25.237 32.5456 25.0938 33.0273C24.9505 33.5091 24.7357 33.9258 24.4492 34.2773C24.1628 34.6289 23.8047 34.9023 23.375 35.0977C22.9583 35.293 22.4701 35.3906 21.9102 35.3906C21.3503 35.3906 20.8555 35.2995 20.4258 35.1172C20.0091 34.9479 19.6576 34.707 19.3711 34.3945C19.0977 34.069 18.8893 33.6914 18.7461 33.2617C18.6029 32.819 18.5312 32.3372 18.5312 31.8164V15.1172H19.9961V31.9336C19.9961 32.5326 20.1589 33.0404 20.4844 33.457C20.8229 33.8737 21.3047 34.082 21.9297 34.082C22.5417 34.082 23.0104 33.8477 23.3359 33.3789C23.6745 32.8971 23.8438 32.3177 23.8438 31.6406V15.1172H25.3086ZM32.1406 35V15.1172H33.6055V35H32.1406ZM31.9453 8.37891C31.9453 7.72786 32.2578 7.40234 32.8828 7.40234C33.1823 7.40234 33.4167 7.48698 33.5859 7.65625C33.7682 7.8125 33.8594 8.05339 33.8594 8.37891C33.8594 8.6263 33.7747 8.84115 33.6055 9.02344C33.4492 9.20573 33.2083 9.29688 32.8828 9.29688C32.5833 9.29688 32.349 9.20573 32.1797 9.02344C32.0234 8.84115 31.9453 8.6263 31.9453 8.37891ZM40.8477 16.4258H39.2266V15.1172H40.8477V12.6562H42.3125V15.1172H44.9883V16.4258H42.3125V31.9336C42.3125 32.5326 42.4753 33.0404 42.8008 33.457C43.1263 33.8607 43.6016 34.0625 44.2266 34.0625H44.8711V35.3906H44.2266C43.6667 35.3906 43.1719 35.2995 42.7422 35.1172C42.3255 34.9349 41.974 34.6875 41.6875 34.375C41.4141 34.0495 41.2057 33.6719 41.0625 33.2422C40.9193 32.7995 40.8477 32.3242 40.8477 31.8164V16.4258ZM53.6367 33.6914C54.2617 33.6914 54.737 33.4831 55.0625 33.0664C55.401 32.6497 55.5703 32.1419 55.5703 31.543V24.6484H53.6367C53.0247 24.6484 52.5495 24.8503 52.2109 25.2539C51.8854 25.6576 51.7227 26.1654 51.7227 26.7773V33.6914H53.6367ZM50.2578 35V26.9141C50.2578 26.3932 50.3294 25.918 50.4727 25.4883C50.6159 25.0456 50.8307 24.668 51.1172 24.3555C51.4036 24.0299 51.7552 23.7826 52.1719 23.6133C52.6016 23.431 53.0898 23.3398 53.6367 23.3398H55.5703V18.1641C55.5703 17.5651 55.401 17.0638 55.0625 16.6602C54.737 16.2435 54.2617 16.0352 53.6367 16.0352C53.0247 16.0352 52.5495 16.2695 52.2109 16.7383C51.8854 17.207 51.7227 17.7799 51.7227 18.457L50.2773 18.6719C50.2773 18.112 50.349 17.5911 50.4922 17.1094C50.6354 16.6276 50.8438 16.2109 51.1172 15.8594C51.4036 15.5078 51.7552 15.2344 52.1719 15.0391C52.6016 14.8307 53.0898 14.7266 53.6367 14.7266C54.1966 14.7266 54.6849 14.8177 55.1016 15C55.5312 15.1823 55.8893 15.4362 56.1758 15.7617C56.4622 16.0742 56.6771 16.4518 56.8203 16.8945C56.9635 17.3242 57.0352 17.793 57.0352 18.3008V31.4258C57.0352 31.9466 56.9635 32.4284 56.8203 32.8711C56.6771 33.3008 56.4622 33.6784 56.1758 34.0039C55.8893 34.3164 55.5312 34.5638 55.1016 34.7461C54.6849 34.9154 54.1966 35 53.6367 35H50.2578ZM67.6953 16.3086C67.5 16.2565 67.2656 16.2305 66.9922 16.2305C66.3672 16.2305 65.8854 16.4388 65.5469 16.8555C65.2214 17.2721 65.0586 17.7799 65.0586 18.3789V35H63.5938V18.4961C63.5938 17.9753 63.6654 17.5 63.8086 17.0703C63.9518 16.6276 64.1667 16.25 64.4531 15.9375C64.7396 15.612 65.0911 15.3646 65.5078 15.1953C65.9375 15.013 66.4323 14.9219 66.9922 14.9219C67.2266 14.9219 67.4544 14.9414 67.6758 14.9805C67.8971 15.0065 68.099 15.0521 68.2812 15.1172L67.6953 16.3086Z" fill="white"/>
<path d="M24.8709 53.4639C25.1586 53.0068 25.4168 52.5413 25.6453 52.0674C25.8738 51.585 26.0642 51.1152 26.2166 50.6582C26.0135 50.3704 25.84 50.0785 25.6961 49.7822C25.5607 49.4775 25.493 49.1644 25.493 48.8428C25.493 48.5296 25.5226 48.2461 25.5818 47.9922C25.6411 47.7383 25.7215 47.5225 25.823 47.3447C25.9246 47.167 26.0389 47.0316 26.1658 46.9385C26.2928 46.8369 26.4239 46.7861 26.5594 46.7861C26.7456 46.7861 26.8937 46.8792 27.0037 47.0654C27.1222 47.2516 27.173 47.4886 27.156 47.7764C27.1391 48.1149 27.0926 48.4788 27.0164 48.8682C26.9487 49.2575 26.8471 49.6553 26.7117 50.0615C26.881 50.2562 27.0545 50.4508 27.2322 50.6455C27.4184 50.8317 27.5834 51.0264 27.7273 51.2295C27.8797 51.4326 28.0024 51.6527 28.0955 51.8896C28.1971 52.1182 28.2478 52.3678 28.2478 52.6387C28.2478 53.0111 28.1759 53.3538 28.032 53.667C27.8966 53.9801 27.7316 54.251 27.5369 54.4795C27.3422 54.708 27.1391 54.8857 26.9275 55.0127C26.7159 55.1396 26.534 55.2031 26.3816 55.2031C26.1193 55.2031 25.9161 55.1354 25.7723 55C25.6368 54.8646 25.5691 54.7165 25.5691 54.5557C25.5691 54.4287 25.5903 54.3018 25.6326 54.1748C25.6749 54.0479 25.7215 53.9336 25.7723 53.832C25.8315 53.722 25.8865 53.6331 25.9373 53.5654C25.9965 53.4977 26.0389 53.4639 26.0642 53.4639C26.1066 53.4639 26.132 53.4808 26.1404 53.5146C26.1573 53.54 26.1658 53.5654 26.1658 53.5908C26.1658 53.6331 26.1616 53.6924 26.1531 53.7686C26.1446 53.8447 26.1404 53.9082 26.1404 53.959C26.1404 54.1029 26.187 54.2214 26.2801 54.3145C26.3816 54.4076 26.5424 54.4541 26.7625 54.4541C26.8556 54.4541 26.9614 54.4329 27.0799 54.3906C27.1984 54.3483 27.3126 54.2806 27.4226 54.1875C27.5327 54.0944 27.6215 53.9801 27.6892 53.8447C27.7654 53.7008 27.8035 53.5316 27.8035 53.3369C27.8035 53.1592 27.7612 52.973 27.6765 52.7783C27.5919 52.5837 27.4819 52.3848 27.3465 52.1816C27.2111 51.9785 27.0587 51.7712 26.8894 51.5596C26.7286 51.348 26.5678 51.1322 26.407 50.9121C26.2124 51.3945 25.9965 51.8643 25.7596 52.3213C25.531 52.7699 25.2856 53.1846 25.0232 53.5654L24.8709 53.4639ZM25.8357 48.1826C25.8357 48.5042 25.895 48.792 26.0135 49.0459C26.132 49.2913 26.2885 49.5326 26.4832 49.7695C26.5509 49.5072 26.5974 49.2575 26.6228 49.0205C26.6482 48.7751 26.6609 48.5423 26.6609 48.3223C26.6609 47.7298 26.5297 47.4336 26.2674 47.4336C26.1912 47.4336 26.0981 47.4928 25.9881 47.6113C25.8865 47.7214 25.8357 47.9118 25.8357 48.1826ZM32.3332 53.0703C32.3332 52.8503 32.3459 52.4948 32.3713 52.0039C32.3967 51.5046 32.4263 50.874 32.4601 50.1123C32.494 49.3506 32.5236 48.4619 32.549 47.4463C32.5744 46.4307 32.5871 45.2923 32.5871 44.0312C32.5871 43.4134 32.5829 42.821 32.5744 42.2539C32.5744 41.6784 32.5702 41.1706 32.5617 40.7305C32.5532 40.2819 32.5448 39.9222 32.5363 39.6514C32.5363 39.3721 32.5363 39.2197 32.5363 39.1943C32.5363 39.1266 32.5448 39.0674 32.5617 39.0166C32.5871 38.9658 32.6336 38.9193 32.7014 38.877C32.7521 38.8516 32.8114 38.8177 32.8791 38.7754C32.9553 38.7246 33.0314 38.6992 33.1076 38.6992C33.2007 38.6992 33.2726 38.7246 33.3234 38.7754C33.3742 38.8177 33.4123 38.8981 33.4377 39.0166C33.4715 39.1266 33.4969 39.3213 33.5139 39.6006C33.5308 39.8714 33.5392 40.2523 33.5392 40.7432C33.5477 41.2256 33.5519 41.8519 33.5519 42.6221C33.5519 43.333 33.535 44.0693 33.5012 44.8311C33.4673 45.5928 33.425 46.3418 33.3742 47.0781C33.3319 47.8145 33.2811 48.5212 33.2219 49.1982C33.1711 49.8753 33.1203 50.4847 33.0695 51.0264C33.0272 51.568 32.9891 52.0208 32.9553 52.3848C32.9214 52.7402 32.9045 52.9688 32.9045 53.0703C32.9045 53.1126 32.9045 53.1634 32.9045 53.2227C32.9045 53.2819 32.9087 53.3411 32.9172 53.4004C32.9256 53.4512 32.9383 53.4977 32.9553 53.54C32.9722 53.5739 32.9976 53.5908 33.0314 53.5908C33.1161 53.5908 33.2049 53.4554 33.298 53.1846C33.3911 52.9137 33.5096 52.5498 33.6535 52.0928C33.7466 51.805 33.8524 51.513 33.9709 51.2168C34.0894 50.9206 34.2121 50.654 34.339 50.417C34.4745 50.1715 34.6099 49.9727 34.7453 49.8203C34.8892 49.668 35.0288 49.5918 35.1642 49.5918C35.2658 49.5918 35.3504 49.6214 35.4182 49.6807C35.4943 49.7399 35.5578 49.8161 35.6086 49.9092C35.6594 49.9938 35.6974 50.0869 35.7228 50.1885C35.7482 50.29 35.7694 50.3874 35.7863 50.4805C35.7948 50.582 35.8075 50.7344 35.8244 50.9375C35.8413 51.1406 35.8583 51.3734 35.8752 51.6357C35.8921 51.8981 35.909 52.1732 35.926 52.4609C35.9514 52.7487 35.9767 53.0238 36.0021 53.2861C36.0445 53.7601 36.1587 54.1029 36.3449 54.3145C36.5311 54.526 36.7723 54.6318 37.0685 54.6318C37.187 54.6318 37.2801 54.6234 37.3478 54.6064C37.4155 54.5895 37.479 54.5811 37.5383 54.5811C37.5806 54.5811 37.589 54.6234 37.5637 54.708C37.5467 54.7419 37.4748 54.8011 37.3478 54.8857C37.2209 54.9619 36.9966 55 36.675 55C36.4042 55 36.1756 54.9577 35.9894 54.873C35.8117 54.7799 35.6678 54.6403 35.5578 54.4541C35.4562 54.2594 35.3758 54.0098 35.3166 53.7051C35.2658 53.3919 35.232 53.0195 35.215 52.5879C35.1981 52.3424 35.1812 52.0885 35.1642 51.8262C35.1558 51.5553 35.1346 51.3099 35.1008 51.0898C35.0754 50.8698 35.0373 50.6921 34.9865 50.5566C34.9357 50.4128 34.8638 50.3408 34.7707 50.3408C34.6945 50.3408 34.6099 50.4297 34.5168 50.6074C34.4237 50.7767 34.3306 50.9798 34.2375 51.2168C34.1529 51.4453 34.0724 51.6781 33.9963 51.915C33.9201 52.1436 33.8609 52.3213 33.8185 52.4482C33.7847 52.5498 33.7339 52.7191 33.6662 52.9561C33.5985 53.193 33.5181 53.4342 33.425 53.6797C33.3319 53.9251 33.2303 54.141 33.1203 54.3271C33.0103 54.5133 32.896 54.6064 32.7775 54.6064C32.676 54.6064 32.5956 54.5514 32.5363 54.4414C32.4771 54.3229 32.4305 54.1833 32.3967 54.0225C32.3713 53.8532 32.3543 53.6839 32.3459 53.5146C32.3374 53.3369 32.3332 53.1888 32.3332 53.0703ZM42.525 54.2002C42.7281 54.2002 42.927 54.1579 43.1217 54.0732C43.3163 53.9801 43.4898 53.849 43.6422 53.6797C43.7945 53.502 43.913 53.2861 43.9976 53.0322C44.0907 52.7783 44.1373 52.4821 44.1373 52.1436C44.1373 51.8643 44.1034 51.6019 44.0357 51.3564C43.968 51.1025 43.8665 50.8825 43.731 50.6963C43.6041 50.5101 43.4348 50.362 43.2232 50.252C43.0201 50.1419 42.7789 50.0869 42.4996 50.0869C42.3049 50.0869 42.1103 50.125 41.9156 50.2012C41.7209 50.2689 41.5474 50.3831 41.3951 50.5439C41.2428 50.6963 41.12 50.8952 41.0269 51.1406C40.9338 51.3776 40.8873 51.6654 40.8873 52.0039C40.8873 52.2747 40.9211 52.5413 40.9889 52.8037C41.0566 53.0576 41.1539 53.2904 41.2808 53.502C41.4163 53.7135 41.5855 53.8828 41.7887 54.0098C42.0002 54.1367 42.2457 54.2002 42.525 54.2002ZM42.0807 54.8477C41.5221 54.8477 41.065 54.6657 40.7096 54.3018C40.3541 53.9294 40.1764 53.3919 40.1764 52.6895C40.1764 52.2155 40.2652 51.7796 40.443 51.3818C40.6207 50.9756 40.8492 50.6286 41.1285 50.3408C41.4163 50.0446 41.7336 49.8161 42.0807 49.6553C42.4277 49.4945 42.7662 49.4141 43.0963 49.4141C43.6295 49.4141 44.0569 49.596 44.3785 49.96C44.7001 50.3239 44.8609 50.8613 44.8609 51.5723C44.8609 52.0462 44.7763 52.4821 44.607 52.8799C44.4462 53.2777 44.2304 53.6247 43.9596 53.9209C43.6972 54.2087 43.401 54.4372 43.0709 54.6064C42.7408 54.7673 42.4107 54.8477 42.0807 54.8477ZM49.6953 47.332C49.7376 47.332 49.7503 47.4167 49.7334 47.5859C49.7249 47.7467 49.7038 47.9583 49.6699 48.2207C49.6445 48.4746 49.6149 48.7581 49.581 49.0713C49.5472 49.3844 49.5303 49.6891 49.5303 49.9854C49.5303 50.5863 49.5345 51.1491 49.543 51.6738C49.5599 52.1986 49.581 52.7106 49.6064 53.21C49.8857 52.7445 50.1693 52.3213 50.457 51.9404C50.7532 51.5596 51.0495 51.2337 51.3457 50.9629C51.6419 50.6921 51.9381 50.4847 52.2344 50.3408C52.5306 50.1885 52.8268 50.1123 53.123 50.1123C53.36 50.1123 53.5589 50.18 53.7197 50.3154C53.8805 50.4424 53.9609 50.6709 53.9609 51.001C53.9609 51.238 53.9101 51.4792 53.8086 51.7246C53.7155 51.9616 53.5843 52.2028 53.415 52.4482C53.2542 52.6852 53.068 52.918 52.8564 53.1465C52.6533 53.375 52.4459 53.5908 52.2344 53.7939C51.7265 54.2679 51.1553 54.7292 50.5205 55.1777L50.3935 55.0254C50.8929 54.5938 51.3415 54.1706 51.7392 53.7559C51.9085 53.5781 52.0736 53.3962 52.2344 53.21C52.3952 53.0153 52.539 52.8249 52.666 52.6387C52.793 52.444 52.8945 52.262 52.9707 52.0928C53.0553 51.915 53.0976 51.75 53.0976 51.5977C53.0976 51.5469 53.0892 51.4792 53.0723 51.3945C53.0638 51.3099 53.0342 51.2295 52.9834 51.1533C52.9326 51.0687 52.8564 51.001 52.7549 50.9502C52.6618 50.891 52.5348 50.8613 52.374 50.8613C52.1793 50.8613 51.972 50.929 51.7519 51.0645C51.5319 51.1999 51.3034 51.3945 51.0664 51.6484C50.8379 51.8939 50.6009 52.1986 50.3555 52.5625C50.1185 52.918 49.8815 53.3158 49.6445 53.7559C49.6784 54.3652 49.7165 54.9535 49.7588 55.5205C49.8011 56.0876 49.8392 56.6504 49.873 57.209C49.9153 57.776 49.945 58.3516 49.9619 58.9355C49.9873 59.5195 50 60.1331 50 60.7764C50 62.266 49.9153 63.5693 49.7461 64.6865C49.5853 65.8037 49.3737 66.7347 49.1113 67.4795C48.8574 68.2327 48.5696 68.7956 48.248 69.168C47.918 69.5488 47.5921 69.7393 47.2705 69.7393C47.0843 69.7393 46.9023 69.6631 46.7246 69.5107C46.5384 69.3584 46.3776 69.1341 46.2422 68.8379C46.0983 68.5501 45.984 68.1947 45.8994 67.7715C45.8063 67.3483 45.7598 66.8617 45.7598 66.3115C45.7598 65.5075 45.8359 64.6146 45.9883 63.6328C46.1406 62.651 46.3564 61.6439 46.6357 60.6113C46.9066 59.5872 47.2282 58.5632 47.6006 57.5391C47.973 56.5234 48.375 55.5713 48.8066 54.6826V53.4131C48.8066 52.4144 48.8447 51.5384 48.9209 50.7852C49.0055 50.0234 49.0986 49.3887 49.2002 48.8809C49.3017 48.3646 49.3991 47.9795 49.4922 47.7256C49.5937 47.4632 49.6614 47.332 49.6953 47.332ZM49.0986 61.2969C49.0986 60.5521 49.0859 59.9258 49.0605 59.418C49.0436 58.9186 49.0182 58.4616 48.9844 58.0469C48.959 57.6406 48.9293 57.2344 48.8955 56.8281C48.8701 56.4219 48.8489 55.9437 48.832 55.3936C48.5104 56.1214 48.2099 56.9001 47.9306 57.7295C47.6514 58.5674 47.4059 59.4307 47.1943 60.3193C46.9743 61.208 46.805 62.1051 46.6865 63.0107C46.5596 63.9163 46.4961 64.8008 46.4961 65.6641C46.4961 65.9941 46.513 66.3623 46.5469 66.7686C46.5807 67.1748 46.6442 67.5557 46.7373 67.9111C46.8219 68.2666 46.9362 68.5628 47.0801 68.7998C47.2155 69.0452 47.3932 69.168 47.6133 69.168C47.7825 69.168 47.9391 69.0622 48.083 68.8506C48.2269 68.639 48.3538 68.347 48.4639 67.9746C48.5739 67.6022 48.667 67.1621 48.7431 66.6543C48.8278 66.1549 48.8955 65.6133 48.9463 65.0293C48.9971 64.4453 49.0351 63.8359 49.0605 63.2012C49.0859 62.5664 49.0986 61.9316 49.0986 61.2969Z" fill="white"/>
<line x1="1.0448" y1="38.8" x2="70" y2="38.8" stroke="white" stroke-width="0.4"/>
<line x1="13.5822" y1="42.8" x2="70.0001" y2="42.8" stroke="white" stroke-width="0.4"/>
<line x1="55.3732" y1="46.8" x2="70" y2="46.8" stroke="white" stroke-width="0.4"/>
<line x1="59.5522" y1="50.8" x2="70" y2="50.8" stroke="white" stroke-width="0.4"/>
</svg>
