<svg width="40" height="41" viewBox="0 0 40 41" fill="none" xmlns="http://www.w3.org/2000/svg">
<path fill-rule="evenodd" clip-rule="evenodd" d="M23.0276 22.5289L26.7934 26.2948C26.9257 26.4273 27.0001 26.6069 27 26.7942C26.9999 26.9814 26.9255 27.161 26.793 27.2934C26.6606 27.4257 26.481 27.5001 26.2937 27.5C26.1064 27.4999 25.9269 27.4255 25.7945 27.293L22.0287 23.5271C20.903 24.3991 19.4873 24.8094 18.0698 24.6746C16.6522 24.5399 15.3393 23.8701 14.398 22.8016C13.4567 21.7332 12.9578 20.3462 13.0028 18.923C13.0478 17.4997 13.6333 16.1471 14.6401 15.1402C15.647 14.1333 16.9996 13.5478 18.4229 13.5028C19.8461 13.4578 21.233 13.9567 22.3014 14.898C23.3699 15.8393 24.0396 17.1523 24.1743 18.5699C24.3091 19.9875 23.8988 21.4031 23.0269 22.5289H23.0276ZM18.6003 23.2996C19.7141 23.2996 20.7824 22.8571 21.57 22.0695C22.3576 21.2818 22.8001 20.2136 22.8001 19.0997C22.8001 17.9858 22.3576 16.9176 21.57 16.1299C20.7824 15.3423 19.7141 14.8998 18.6003 14.8998C17.4864 14.8998 16.4182 15.3423 15.6306 16.1299C14.8429 16.9176 14.4005 17.9858 14.4005 19.0997C14.4005 20.2136 14.8429 21.2818 15.6306 22.0695C16.4182 22.8571 17.4864 23.2996 18.6003 23.2996Z" fill="white"/>
</svg>
