<svg width="25" height="24" viewBox="0 0 25 24" fill="none" xmlns="http://www.w3.org/2000/svg">
<g clip-path="url(#clip0_1919_428)">
<path d="M12.1922 0.480103C5.82984 0.480103 0.672241 5.6377 0.672241 12.0001C0.672241 18.3625 5.82984 23.5201 12.1922 23.5201C18.5546 23.5201 23.7122 18.3625 23.7122 12.0001C23.7122 5.6377 18.5546 0.480103 12.1922 0.480103ZM16.8782 9.9169C16.883 10.0153 16.8842 10.1137 16.8842 10.2097C16.8842 13.2097 14.603 16.6669 10.4294 16.6669C9.19619 16.669 7.9886 16.3148 6.95184 15.6469C7.12824 15.6685 7.30944 15.6769 7.49304 15.6769C8.55624 15.6769 9.53424 15.3157 10.3106 14.7061C9.8375 14.6968 9.37905 14.5401 8.99917 14.2579C8.6193 13.9757 8.33694 13.582 8.19144 13.1317C8.53123 13.1963 8.88126 13.1828 9.21504 13.0921C8.7015 12.9883 8.23968 12.71 7.90789 12.3045C7.5761 11.899 7.39477 11.3912 7.39464 10.8673V10.8397C7.70064 11.0089 8.05104 11.1121 8.42304 11.1241C7.9416 10.8036 7.60078 10.3113 7.47029 9.74786C7.33981 9.18442 7.4295 8.59241 7.72104 8.0929C8.29099 8.7937 9.00175 9.367 9.80732 9.77567C10.6129 10.1844 11.4953 10.4193 12.3974 10.4653C12.2827 9.97847 12.3321 9.46739 12.5379 9.01151C12.7436 8.55563 13.0942 8.18049 13.5351 7.94442C13.9761 7.70835 14.4826 7.62457 14.9761 7.70611C15.4696 7.78765 15.9223 8.02993 16.2638 8.3953C16.7716 8.29483 17.2586 8.10857 17.7038 7.8445C17.5346 8.37026 17.1803 8.81671 16.7066 9.1009C17.1565 9.04672 17.5957 8.9258 18.0098 8.7421C17.7056 9.19798 17.3224 9.59583 16.8782 9.9169Z" fill="#FEFAFA"/>
</g>
<defs>
<clipPath id="clip0_1919_428">
<rect width="24" height="24" fill="white" transform="translate(0.192139)"/>
</clipPath>
</defs>
</svg>
